# Blender 5.1.1
# www.blender.org
mtllib hellbilly stairs.mtl
o Stairs
v -10.556560 -0.003647 -1.000000
v -10.556560 1.996353 -1.000000
v -8.556560 -0.003647 -1.000000
v -8.556560 1.996353 -1.000000
v -10.556560 1.996353 -1.000000
v -10.556560 -0.003647 0.777778
v -10.556560 0.246353 0.777778
v -10.556560 0.246353 0.555556
v -10.556560 0.496353 0.555556
v -10.556560 0.496353 0.333333
v -10.556560 0.746353 0.333333
v -10.556560 0.746353 0.111111
v -10.556560 0.996353 0.111111
v -10.556560 0.996353 -0.111111
v -10.556560 1.246353 -0.111111
v -10.556560 1.246353 -0.333333
v -10.556560 1.496353 -0.333333
v -10.556560 1.496353 -0.555556
v -10.556560 1.746353 -0.555556
v -10.556560 1.746353 -0.777778
v -10.556560 1.996353 -0.777778
v -8.556560 1.996353 -1.000000
v -8.556560 1.996353 -0.777778
v -8.556560 1.746353 -0.777778
v -8.556560 1.746353 -0.555556
v -8.556560 1.496353 -0.555556
v -8.556560 1.496353 -0.333333
v -8.556560 1.246353 -0.333333
v -8.556560 1.246353 -0.111111
v -8.556560 0.996353 -0.111111
v -8.556560 0.996353 0.111111
v -8.556560 0.746353 0.111111
v -8.556560 0.746353 0.333333
v -8.556560 0.496353 0.333333
v -8.556560 0.496353 0.555556
v -8.556560 0.246353 0.555556
v -8.556560 0.246353 0.777778
v -8.556560 -0.003647 0.777778
vn -0.0000 -0.0000 -1.0000
vn -0.0000 1.0000 -0.0000
vn -0.0000 -0.0000 1.0000
vn -1.0000 -0.0000 -0.0000
vn 1.0000 -0.0000 -0.0000
vn -0.0000 -1.0000 -0.0000
vt 1.567098 -0.137422
vt -0.567098 -0.137422
vt -0.567098 1.084790
vt 1.567098 1.084790
vt -0.454771 1.084790
vt -0.454771 -0.137422
vt -0.217639 -0.137422
vt -0.217639 1.084790
vt -0.300323 -0.137422
vt -0.300323 1.084790
vt 0.019494 -0.137422
vt 0.019494 1.084790
vt -0.033549 -0.137422
vt -0.033549 1.084790
vt 0.256627 -0.137422
vt 0.256627 1.084790
vt 0.233226 -0.137422
vt 0.233226 1.084790
vt 0.493760 -0.137422
vt 0.493760 1.084790
vt 0.500000 -0.137422
vt 0.500000 1.084790
vt 0.730893 -0.137422
vt 0.730893 1.084790
vt 0.766774 -0.137422
vt 0.766774 1.084790
vt 0.968025 -0.137422
vt 0.968025 1.084790
vt 1.033549 -0.137422
vt 1.033549 1.084790
vt 1.205158 -0.137422
vt 1.205158 1.084790
vt 1.300323 -0.137422
vt 1.300323 1.084790
vt 1.442291 -0.137422
vt 1.442291 1.084790
vt 1.567098 0.988300
vt 1.567098 -0.098111
vt 1.300323 -0.098111
vt 1.300323 0.037690
vt 1.033549 0.037690
vt 1.033549 0.173492
vt 0.766774 0.173492
vt 0.766774 0.309293
vt 0.500000 0.309293
vt 0.500000 0.445094
vt 0.233226 0.445094
vt 0.233226 0.580896
vt -0.033549 0.580896
vt -0.033549 0.716697
vt -0.300323 0.716697
vt -0.300323 0.852499
vt -0.567098 0.852499
vt -0.567098 0.988300
s 0
usemtl Material.001
f 1/1/1 2/2/1 4/3/1 3/4/1
f 22/5/2 5/6/2 21/7/2 23/8/2
f 23/3/3 21/2/3 20/9/3 24/10/3
f 24/8/2 20/7/2 19/11/2 25/12/2
f 25/10/3 19/9/3 18/13/3 26/14/3
f 26/12/2 18/11/2 17/15/2 27/16/2
f 27/14/3 17/13/3 16/17/3 28/18/3
f 28/16/2 16/15/2 15/19/2 29/20/2
f 29/18/3 15/17/3 14/21/3 30/22/3
f 30/20/2 14/19/2 13/23/2 31/24/2
f 31/22/3 13/21/3 12/25/3 32/26/3
f 32/24/2 12/23/2 11/27/2 33/28/2
f 33/26/3 11/25/3 10/29/3 34/30/3
f 34/28/2 10/27/2 9/31/2 35/32/2
f 35/30/3 9/29/3 8/33/3 36/34/3
f 36/32/2 8/31/2 7/35/2 37/36/2
f 37/34/3 7/33/3 6/1/3 38/4/3
f 4/5/2 2/6/2 5/6/2 22/5/2
f 1/37/4 6/38/4 7/39/4 8/40/4 9/41/4 10/42/4 11/43/4 12/44/4 13/45/4 14/46/4 15/47/4 16/48/4 17/49/4 18/50/4 19/51/4 20/52/4 21/53/4 5/54/4 2/54/4
f 4/54/5 22/54/5 23/53/5 24/52/5 25/51/5 26/50/5 27/49/5 28/48/5 29/47/5 30/46/5 31/45/5 32/44/5 33/43/5 34/42/5 35/41/5 36/40/5 37/39/5 38/38/5 3/37/5
f 3/5/6 38/36/6 6/35/6 1/6/6
