# Blender 5.1.1
# www.blender.org
mtllib prop_key.mtl
o Key
v 1.230271 0.000000 0.163871
v 0.950369 0.129303 0.157136
v 0.950369 -0.129303 0.157136
v 0.779362 0.000000 -0.977289
v 0.545553 0.216506 -0.684103
v 0.545553 -0.216506 -0.684103
v -0.278151 0.000000 -1.218660
v -0.194706 0.216506 -0.853062
v -0.194706 -0.216506 -0.853062
v -1.126211 0.000000 -0.542355
v -0.788348 0.216506 -0.379648
v -0.788348 -0.216506 -0.379648
v -1.126211 0.000000 0.542354
v -0.788348 0.216506 0.379648
v -0.788348 -0.216506 0.379648
v -0.278151 0.000000 1.218660
v -0.194706 0.216506 0.853062
v -0.194706 -0.216506 0.853062
v 0.895180 0.000000 0.859693
v 0.715398 0.129303 0.645056
v 0.715398 -0.129303 0.645056
v 1.250000 0.000000 0.000000
v 0.875000 0.216506 0.000000
v 0.875000 -0.216506 0.000000
v 0.779362 0.000000 0.977290
v 0.545553 0.216506 0.684103
v 0.545553 -0.216506 0.684103
v 4.806846 0.000000 1.886260
v 4.471756 0.000000 2.582083
v 4.405017 0.113830 1.816382
v 4.405017 -0.113830 1.816382
v 4.170047 0.113830 2.304303
v 4.170047 -0.113830 2.304303
v 3.785460 0.115552 2.119588
v 4.020431 0.115552 1.631668
v 3.731848 -0.032360 2.228025
v 4.408686 0.000000 1.694516
v 4.020431 -0.115552 1.631668
v 3.785460 -0.115552 2.119588
v 3.678869 0.117082 1.467618
v 4.055070 0.000000 1.524224
v 3.443899 -0.117082 1.955538
v 3.443899 0.117082 1.955538
v 3.378232 -0.032360 2.057733
v 3.678869 -0.117082 1.467618
v 3.522157 0.117784 1.392350
v 3.892827 0.000000 1.446092
v 3.287187 -0.117784 1.880271
v 3.287187 0.117784 1.880271
v 3.215989 -0.032360 1.979600
v 3.522157 -0.117784 1.392350
v 3.192985 0.119258 1.234251
v 3.552037 0.000000 1.281975
v 2.958014 -0.119258 1.722171
v 2.958014 0.119258 1.722171
v 2.875198 -0.032360 1.815484
v 3.192985 -0.119258 1.234251
v 3.196865 0.119984 2.510850
v 3.538426 0.119731 2.674900
v 3.197211 0.000000 2.501742
v 3.550827 0.000000 2.672035
v 3.538426 -0.119731 2.674900
v 3.196865 -0.119984 2.510850
v 2.707817 0.119160 2.284028
v 3.036989 0.118916 2.442128
v 2.694140 0.000000 2.259476
v 3.034931 0.000000 2.423593
v 3.201864 -0.118916 2.107060
v 2.872691 -0.119160 1.948960
vn 0.4861 0.8420 -0.2341
vn -0.9010 -0.0000 0.4339
vn 0.4861 -0.8420 -0.2341
vn 0.1201 0.8420 -0.5260
vn -0.2225 -0.0000 0.9749
vn 0.1201 -0.8420 -0.5260
vn -0.3364 0.8420 -0.4218
vn 0.6235 -0.0000 0.7818
vn -0.3364 -0.8420 -0.4218
vn -0.5395 0.8420 -0.0000
vn 1.0000 -0.0000 -0.0000
vn -0.5395 -0.8420 -0.0000
vn -0.3364 0.8420 0.4218
vn 0.6235 -0.0000 -0.7818
vn -0.3364 -0.8420 0.4218
vn 0.1201 0.8420 0.5260
vn -0.2225 -0.0000 -0.9749
vn 0.1201 -0.8420 0.5260
vn -0.3377 0.6641 0.6670
vn -0.9010 -0.0000 -0.4339
vn 0.0036 1.0000 0.0018
vn 0.4598 0.8739 0.1577
vn 0.4598 -0.8739 0.1577
vn 0.4100 0.8739 0.2612
vn 0.4100 -0.8739 0.2612
vn 0.4861 0.8420 0.2341
vn 0.4861 -0.8420 0.2341
vn 0.2510 0.9604 0.1209
vn 0.2510 -0.9604 0.1209
vn 0.3111 0.6992 -0.6437
vn 0.0036 -1.0000 0.0018
vn -0.2447 -0.7910 0.5607
vn 0.3111 -0.6992 -0.6437
vn 0.3127 -0.6954 -0.6470
vn 0.0047 -1.0000 -0.0043
vn 0.3127 0.6954 -0.6470
vn 0.9189 -0.0184 0.3941
vn -0.3367 0.6266 0.7029
vn 0.3138 0.6928 -0.6493
vn -0.2486 -0.8167 0.5207
vn 0.3138 -0.6928 -0.6493
vn 0.3148 -0.6903 -0.6514
vn 0.0047 1.0000 -0.0043
vn 0.3148 0.6903 -0.6514
vn 0.0025 1.0000 0.0002
vn -0.3262 0.6450 0.6911
vn 0.3200 0.6775 -0.6623
vn -0.2973 -0.7349 0.6096
vn 0.3200 -0.6775 -0.6623
vn -0.4324 0.0679 0.8991
vn -0.4324 -0.0679 0.8991
vn -0.1367 -0.9488 0.2849
vn -0.4296 -0.1332 0.8931
vn 0.8774 0.3462 0.3323
vn 0.0031 -1.0000 -0.0011
vn 0.9193 0.0136 0.3933
vn -0.9148 0.0854 -0.3948
vn 0.9098 -0.1293 0.3944
vn -0.8941 0.2195 -0.3904
vn -0.9143 -0.1152 -0.3883
vn -0.8360 -0.4527 -0.3101
vt 0.571429 0.666667
vt 0.714286 0.666667
vt 0.714286 1.000000
vt 0.571429 1.000000
vt 0.571429 0.000000
vt 0.714286 0.000000
vt 0.714286 0.333333
vt 0.571429 0.333333
vt 0.857143 0.666667
vt 0.857143 1.000000
vt 0.857143 0.000000
vt 0.857143 0.333333
vt 1.000000 0.666667
vt 1.000000 1.000000
vt 1.000000 0.000000
vt 1.000000 0.333333
vt -0.000000 0.666667
vt 0.142857 0.666667
vt 0.142857 1.000000
vt -0.000000 1.000000
vt -0.000000 0.000000
vt 0.142857 0.000000
vt 0.142857 0.333333
vt -0.000000 0.333333
vt 0.285714 0.666667
vt 0.285714 1.000000
vt 0.285714 0.000000
vt 0.285714 0.333333
vt 0.428571 0.666667
vt 0.428571 1.000000
vt 0.428571 0.000000
vt 0.428571 0.333333
vt 0.455672 0.865741
vt 0.450416 0.703962
vt 0.450416 0.703962
vt 0.544328 0.865741
vt 0.544328 0.865741
vt 0.549584 0.703962
vt 0.544328 0.467592
vt 0.455672 0.467592
vt 0.455672 0.467592
vt 0.544328 0.467592
vt 0.549584 0.703962
vt 0.455672 0.467592
vt 0.544328 0.865741
vt 0.455672 0.865741
vt 0.455672 0.865741
vt 0.450416 0.703962
vt 0.455672 0.865741
s 0
usemtl Gold
f 22/1/1 4/2/1 5/3/1 23/4/1
f 23/5/2 5/6/2 6/7/2 24/8/2
f 24/8/3 6/7/3 4/2/3 22/1/3
f 4/2/4 7/9/4 8/10/4 5/3/4
f 5/6/5 8/11/5 9/12/5 6/7/5
f 6/7/6 9/12/6 7/9/6 4/2/6
f 7/9/7 10/13/7 11/14/7 8/10/7
f 8/11/8 11/15/8 12/16/8 9/12/8
f 9/12/9 12/16/9 10/13/9 7/9/9
f 10/17/10 13/18/10 14/19/10 11/20/10
f 11/21/11 14/22/11 15/23/11 12/24/11
f 12/24/12 15/23/12 13/18/12 10/17/12
f 13/18/13 16/25/13 17/26/13 14/19/13
f 14/22/14 17/27/14 18/28/14 15/23/14
f 15/23/15 18/28/15 16/25/15 13/18/15
f 16/25/16 25/29/16 26/30/16 17/26/16
f 17/27/17 26/31/17 27/32/17 18/28/17
f 18/28/18 27/32/18 25/29/18 16/25/18
f 34/33/19 36/34/19 29/35/19 32/33/19
f 26/31/20 23/5/20 24/8/20 27/32/20
f 35/36/21 34/33/21 32/33/21 30/37/21
f 2/37/22 1/38/22 22/1/22 23/4/22
f 1/38/23 3/39/23 24/8/23 22/1/23
f 19/35/24 20/33/24 26/30/24 25/29/24
f 21/40/25 19/35/25 25/29/25 27/32/25
f 20/33/26 2/37/26 23/4/26 26/30/26
f 3/39/27 21/40/27 27/32/27 24/8/27
f 29/35/28 28/38/28 30/37/28 32/33/28
f 33/40/29 31/39/29 28/38/29 29/35/29
f 37/38/30 35/36/30 30/37/30 28/38/30
f 39/41/31 38/39/31 31/39/31 33/40/31
f 36/34/32 39/41/32 33/40/32 29/35/32
f 38/39/33 37/38/33 28/38/33 31/39/33
f 45/42/34 41/43/34 37/38/34 38/39/34
f 42/44/35 39/41/35 62/41/35 63/44/35
f 42/44/31 45/42/31 38/39/31 39/41/31
f 41/43/36 40/45/36 35/36/36 37/38/36
f 40/45/21 43/46/21 34/33/21 35/36/21
f 39/41/37 36/34/37 61/34/37 62/41/37
f 49/47/38 50/48/38 44/48/38 43/46/38
f 46/37/21 49/47/21 43/46/21 40/45/21
f 47/43/39 46/37/39 40/45/39 41/43/39
f 48/44/31 51/39/31 45/42/31 42/44/31
f 50/48/40 48/44/40 42/44/40 44/48/40
f 51/39/41 47/43/41 41/43/41 45/42/41
f 57/39/42 53/43/42 47/43/42 51/39/42
f 34/33/43 43/46/43 58/46/43 59/33/43
f 54/44/31 57/39/31 51/39/31 48/44/31
f 53/43/44 52/37/44 46/37/44 47/43/44
f 52/37/21 55/49/21 49/47/21 46/37/21
f 49/47/45 55/49/45 64/49/45 65/47/45
f 20/33/46 19/35/46 56/48/46 55/49/46
f 2/37/21 20/33/21 55/49/21 52/37/21
f 1/38/47 2/37/47 52/37/47 53/43/47
f 21/40/31 3/39/31 57/39/31 54/44/31
f 19/35/48 21/40/48 54/44/48 56/48/48
f 3/39/49 1/38/49 53/43/49 57/39/49
f 60/48/50 63/44/50 62/41/50 61/34/50
f 58/46/51 60/48/51 61/34/51 59/33/51
f 66/48/52 69/44/52 68/44/52 67/48/52
f 64/49/53 66/48/53 67/48/53 65/47/53
f 48/44/54 50/48/54 67/48/54 68/44/54
f 54/44/55 48/44/55 68/44/55 69/44/55
f 36/34/56 34/33/56 59/33/56 61/34/56
f 43/46/57 44/48/57 60/48/57 58/46/57
f 50/48/58 49/47/58 65/47/58 67/48/58
f 55/49/59 56/48/59 66/48/59 64/49/59
f 44/48/60 42/44/60 63/44/60 60/48/60
f 56/48/61 54/44/61 69/44/61 66/48/61
