# Blender 5.1.1
# www.blender.org
mtllib prop_lamp.mtl
o Lamp
v 0.000000 -1.792046 -0.516441
v 0.000000 -1.662046 -0.128815
v 0.458994 -1.792046 -0.251441
v 0.123300 -1.662046 -0.057628
v 0.458994 -1.792046 0.278559
v 0.123300 -1.662046 0.084746
v 0.000000 -1.792046 0.543559
v 0.000000 -1.662046 0.155934
v -0.458993 -1.792046 0.278559
v -0.123300 -1.662046 0.084746
v -0.458993 -1.792046 -0.251441
v -0.123300 -1.662046 -0.057628
v 0.458994 -1.662046 -0.251441
v 0.000000 -1.662046 -0.516441
v 0.458994 -1.662046 0.278559
v 0.000000 -1.662046 0.543559
v -0.458993 -1.662046 0.278559
v -0.458993 -1.662046 -0.251441
v 0.123300 1.973974 -0.057628
v 0.000000 1.973974 -0.128815
v 0.123300 1.973974 0.084746
v 0.000000 1.973974 0.155934
v -0.123300 1.973974 0.084746
v -0.123300 1.973974 -0.057628
v 0.473156 2.078367 -0.259617
v -0.000000 2.078367 -0.532794
v 0.473157 2.078367 0.286738
v -0.000000 2.078367 0.559915
v -0.473157 2.078367 0.286737
v -0.473157 2.078367 -0.259617
v 0.473156 0.907835 -0.259617
v -0.000001 0.907835 -0.532794
v 0.473156 0.907835 0.286738
v -0.000001 0.907835 0.559915
v -0.473157 0.907835 0.286737
v -0.473158 0.907835 -0.259617
v 0.123300 -1.662046 -0.057628
v 0.000000 -1.662046 -0.128815
v -0.123300 -1.662046 -0.057628
v 0.123300 1.973974 -0.057628
v 0.000000 1.973974 -0.128815
v -0.123300 1.973974 -0.057628
vn 0.5000 -0.0000 -0.8660
vn 1.0000 -0.0000 -0.0000
vn 0.5000 -0.0000 0.8660
vn -0.5000 -0.0000 0.8660
vn -1.0000 -0.0000 -0.0000
vn -0.5000 -0.0000 -0.8660
vn -0.0000 -1.0000 -0.0000
vn -0.0000 1.0000 -0.0000
vn 0.1430 0.9582 0.2476
vn 0.1430 0.9583 -0.2476
vn -0.2859 0.9582 -0.0000
vn 0.2859 0.9583 -0.0000
vn -0.1430 0.9583 -0.2476
vn -0.1430 0.9582 0.2476
vt 1.000000 0.500000
vt 1.000000 1.000000
vt 0.833333 1.000000
vt 0.833333 0.500000
vt 0.666667 1.000000
vt 0.666667 0.500000
vt 0.500000 1.000000
vt 0.500000 0.500000
vt 0.333333 1.000000
vt 0.333333 0.500000
vt 0.194166 0.282236
vt 0.194166 0.217764
vt 0.166667 1.000000
vt 0.166667 0.500000
vt -0.000000 1.000000
vt -0.000000 0.500000
vt 0.750000 0.490000
vt 0.957846 0.370000
vt 0.957846 0.130000
vt 0.750000 0.010000
vt 0.542154 0.130000
vt 0.542154 0.370000
vt 0.250000 0.314471
vt 0.305834 0.282236
vt 0.457846 0.370000
vt 0.250000 0.490000
vt 0.305834 0.217764
vt 0.457846 0.130000
vt 0.250000 0.185529
vt 0.250000 0.010000
vt 0.042154 0.130000
vt 0.042154 0.370000
s 0
usemtl Pants
f 1/1/1 14/2/1 13/3/1 3/4/1
f 3/4/2 13/3/2 15/5/2 5/6/2
f 5/6/3 15/5/3 16/7/3 7/8/3
f 8/29/3 6/27/3 21/27/3 22/29/3
f 2/23/8 4/24/8 37/24/8 38/23/8
f 20/23/8 24/11/8 42/11/8 41/23/8
f 6/27/2 4/24/2 19/24/2 21/27/2
f 30/11/5 36/11/5 35/12/5 29/12/5
f 28/29/3 34/29/3 33/27/3 27/27/3
f 25/24/1 31/24/1 32/23/1 26/23/1
f 26/23/6 32/23/6 36/11/6 30/11/6
f 29/12/4 35/12/4 34/29/4 28/29/4
f 27/27/2 33/27/2 31/24/2 25/24/2
f 37/24/1 38/23/1 41/23/1 40/24/1
f 12/11/8 2/23/8 38/23/8 39/11/8
f 4/24/8 19/24/8 40/24/8 37/24/8
f 19/24/8 20/23/8 41/23/8 40/24/8
f 24/11/8 12/11/8 39/11/8 42/11/8
usemtl Silver
f 7/8/4 16/7/4 17/9/4 9/10/4
f 12/11/5 10/12/5 23/12/5 24/11/5
f 9/10/5 17/9/5 18/13/5 11/14/5
f 11/14/6 18/13/6 14/15/6 1/16/6
f 1/17/7 3/18/7 5/19/7 7/20/7 9/21/7 11/22/7
f 2/23/8 4/24/8 13/25/8 14/26/8
f 4/24/8 6/27/8 15/28/8 13/25/8
f 6/27/8 8/29/8 16/30/8 15/28/8
f 8/29/8 10/12/8 17/31/8 16/30/8
f 10/12/8 12/11/8 18/32/8 17/31/8
f 12/11/8 2/23/8 14/26/8 18/32/8
f 10/12/4 8/29/4 22/29/4 23/12/4
f 38/23/6 39/11/6 42/11/6 41/23/6
usemtl Material
f 20/23/9 26/23/9 30/11/9 24/11/9
f 23/12/10 29/12/10 28/29/10 22/29/10
f 21/27/11 27/27/11 25/24/11 19/24/11
f 24/11/12 30/11/12 29/12/12 23/12/12
f 22/29/13 28/29/13 27/27/13 21/27/13
f 19/24/14 25/24/14 26/23/14 20/23/14
f 31/24/7 33/27/7 34/29/7 35/12/7 36/11/7 32/23/7
